<svg xmlns="http://www.w3.org/2000/svg" xmlns:xlink="http://www.w3.org/1999/xlink" version="1.1" width="1000" height="1000" viewBox="0 0 1000 1000" xml:space="preserve">
<desc>Created with Fabric.js 3.5.0</desc>
<defs>
</defs>
<rect x="0" y="0" width="100%" height="100%" fill="#e9e81d"/>
<g transform="matrix(3.5286 0 0 3.5286 501.0612 516.4655)" id="50875">
<g style="" vector-effect="non-scaling-stroke">
		<g transform="matrix(0.1333 0 0 -0.1333 0.2013 -1.0289)">
<path style="stroke: none; stroke-width: 1; stroke-dasharray: none; stroke-linecap: butt; stroke-dashoffset: 0; stroke-linejoin: miter; stroke-miterlimit: 4; is-custom-font: none; font-file-url: none; fill: rgb(0,0,0); fill-rule: nonzero; opacity: 1;" transform=" translate(-1066.7643, -917.4953)" d="M 1444 1801 c -45 -11 -89 -45 -107 -84 c -30 -61 -38 -64 -207 -72 c -137 -6 -157 -5 -169 9 c -17 20 -50 21 -57 1 c -5 -11 -22 -15 -66 -15 c -62 0 -76 8 -122 75 c -21 30 -71 55 -112 55 c -40 0 -94 -30 -115 -64 c -33 -54 -34 -90 -5 -150 c 14 -29 26 -60 26 -68 c 0 -8 -33 -75 -74 -149 c -67 -121 -77 -134 -106 -140 c -18 -4 -36 -13 -41 -21 c -13 -19 -11 -62 3 -76 c 9 -9 5 -21 -18 -54 c -28 -40 -34 -43 -87 -49 c -66 -7 -100 -27 -123 -71 c -52 -101 19 -208 137 -208 c 56 0 55 0 149 -155 c 58 -98 70 -123 61 -137 c -28 -45 1 -98 52 -98 c 44 0 61 -38 53 -121 c -8 -85 8 -130 56 -159 c 36 -22 97 -26 131 -9 c 12 6 35 23 50 38 l 28 26 l 223 3 c 192 3 224 1 235 -12 c 17 -20 40 -20 61 -1 c 10 9 34 16 55 17 c 30 1 42 -4 57 -26 c 23 -31 67 -56 100 -56 c 41 0 86 36 98 78 c 10 31 9 45 -4 76 c -9 21 -16 46 -16 55 c 1 9 36 79 79 156 c 71 127 80 140 111 146 c 18 4 36 13 41 21 c 12 19 11 62 -2 75 c -9 9 -6 21 10 46 c 23 38 63 57 119 57 c 82 0 151 87 137 176 c -12 82 -79 134 -173 134 c -60 0 -68 8 -153 150 c -44 73 -62 113 -61 133 c 3 33 -13 57 -37 57 c -17 0 -71 80 -71 106 c 0 9 10 30 22 47 c 34 48 37 141 6 186 c -39 59 -110 87 -174 72 z m -142 -191 c 14 -10 31 -33 38 -50 c 19 -46 73 -74 155 -80 c 67 -5 70 -6 97 -45 c 20 -29 27 -48 23 -68 c -6 -37 10 -67 38 -67 c 17 0 36 -25 91 -117 c 38 -64 71 -127 74 -140 c 3 -15 -5 -42 -18 -66 c -30 -52 -30 -112 -2 -166 c 12 -23 22 -55 22 -72 c 0 -36 -26 -79 -49 -79 c -47 0 -75 -53 -52 -98 c 6 -12 -8 -47 -53 -127 c -107 -194 -100 -185 -143 -185 c -42 0 -100 -31 -110 -58 c -17 -49 -84 -71 -113 -37 c -18 21 -57 19 -70 -5 c -10 -19 -21 -20 -219 -20 c -155 0 -211 3 -218 13 c -5 6 -15 31 -22 54 c -8 28 -23 51 -47 69 c -31 24 -40 26 -101 21 c -61 -5 -68 -3 -89 20 c -20 21 -23 32 -18 65 c 8 44 -14 78 -51 78 c -17 0 -38 27 -99 129 c -43 71 -80 138 -82 149 c -3 10 4 34 15 53 c 27 44 28 113 1 157 c -24 40 -25 61 -3 107 c 12 26 23 35 42 35 c 48 0 82 65 50 97 c -9 9 9 48 68 155 l 80 143 l 61 6 c 71 7 103 25 137 79 c 14 21 33 44 44 50 c 24 12 121 13 121 1 c 0 -17 33 -21 55 -7 c 22 14 49 17 261 24 c 48 2 67 -2 86 -18 z" stroke-linecap="round"/>
</g>
		<g transform="matrix(0.1333 0 0 -0.1333 -0.1309 4.303)">
<path style="stroke: none; stroke-width: 1; stroke-dasharray: none; stroke-linecap: butt; stroke-dashoffset: 0; stroke-linejoin: miter; stroke-miterlimit: 4; is-custom-font: none; font-file-url: none; fill: rgb(0,0,0); fill-rule: nonzero; opacity: 1;" transform=" translate(-1064.1797, -877.5529)" d="M 1080 1562 c -26 -12 -39 -29 -51 -62 c -15 -41 -23 -48 -85 -77 c -52 -23 -73 -29 -87 -21 c -20 10 -47 -5 -47 -27 c 0 -6 -29 -24 -64 -39 c -61 -26 -66 -27 -95 -12 c -52 27 -98 21 -138 -19 c -33 -33 -35 -39 -31 -84 c 3 -34 13 -59 32 -81 c 15 -18 25 -40 22 -49 c -2 -9 -8 -49 -11 -89 c -6 -56 -11 -75 -26 -83 c -22 -11 -27 -67 -6 -74 c 8 -4 11 -21 8 -53 c -3 -39 -9 -53 -42 -83 c -51 -47 -54 -95 -9 -141 c 29 -28 34 -30 80 -24 c 49 6 52 5 117 -44 c 38 -28 70 -61 73 -73 c 4 -15 15 -23 35 -25 c 47 -6 122 -67 130 -105 c 11 -58 27 -88 56 -102 c 61 -32 138 -8 159 49 c 21 56 26 60 114 98 c 70 30 91 36 107 27 c 28 -14 58 -2 65 27 c 4 16 19 30 41 39 c 33 14 38 13 68 -5 c 76 -47 165 -5 165 79 c 0 33 -7 49 -37 81 l -36 41 l 11 101 c 8 73 15 104 26 110 c 18 10 21 44 5 54 c -15 9 -5 97 12 103 c 34 11 69 60 69 95 c 0 78 -42 116 -127 116 c -41 0 -58 6 -101 38 c -32 23 -52 44 -52 58 c 0 29 -19 44 -55 44 c -21 0 -51 14 -93 46 c -55 41 -62 50 -62 80 c 0 23 -9 43 -27 63 c -36 38 -70 45 -113 23 z m -26 -157 c 29 -29 90 -34 122 -10 c 30 23 51 18 109 -26 c 38 -29 55 -48 55 -64 c 0 -31 24 -49 55 -41 c 19 5 36 -2 70 -26 c 54 -41 58 -49 40 -92 c -9 -20 -12 -47 -9 -66 c 7 -31 55 -80 79 -80 c 8 0 17 -5 21 -12 c 12 -20 4 -82 -11 -91 c -18 -9 -20 -38 -4 -54 c 8 -8 8 -36 0 -99 c -6 -49 -11 -94 -11 -101 c 0 -7 -20 -21 -44 -32 c -49 -21 -76 -61 -76 -110 c 0 -40 -50 -70 -85 -51 c -28 15 -62 -1 -67 -31 c -2 -15 -24 -29 -82 -55 c -44 -19 -84 -34 -91 -34 c -6 0 -21 13 -33 30 c -31 41 -87 57 -132 36 c -19 -8 -44 -22 -55 -30 c -19 -14 -24 -13 -67 17 c -26 18 -48 39 -48 48 c 0 21 -24 41 -44 37 c -17 -3 -141 79 -150 99 c -3 6 0 25 7 42 c 15 41 -11 98 -53 113 c -28 9 -30 14 -30 59 c 0 38 4 51 20 59 c 22 12 28 64 9 76 c -8 4 -9 32 -4 87 c 8 96 12 107 36 107 c 34 0 87 27 104 54 c 9 14 17 48 18 78 c 2 52 3 53 47 75 c 25 12 60 22 79 21 c 19 -2 36 2 38 7 c 8 23 21 32 78 57 c 75 33 79 33 109 3 z" stroke-linecap="round"/>
</g>
		<g transform="matrix(0.1333 0 0 -0.1333 0.7377 3.2927)">
<path style="stroke: none; stroke-width: 1; stroke-dasharray: none; stroke-linecap: butt; stroke-dashoffset: 0; stroke-linejoin: miter; stroke-miterlimit: 4; is-custom-font: none; font-file-url: none; fill: rgb(0,0,0); fill-rule: nonzero; opacity: 1;" transform=" translate(-1070.6482, -885.1862)" d="M 945 1335 c -19 -18 -25 -35 -25 -69 c 0 -49 -20 -69 -70 -70 c -18 -1 -26 -8 -30 -27 c -3 -15 -20 -39 -38 -54 c -26 -22 -39 -26 -66 -21 c -65 12 -111 -29 -104 -94 c 2 -26 11 -40 38 -58 c 42 -28 55 -58 39 -89 c -10 -19 -9 -26 4 -40 c 8 -10 18 -35 22 -55 c 6 -30 3 -43 -14 -64 c -28 -36 -27 -79 4 -109 c 26 -27 54 -31 86 -14 c 28 14 76 2 82 -21 c 4 -15 13 -19 43 -18 c 58 2 113 -25 125 -62 c 11 -30 53 -60 84 -60 c 25 0 75 55 75 82 c 0 28 43 73 60 63 c 15 -9 40 13 40 35 c 0 31 59 60 107 53 c 23 -3 53 -3 67 1 c 28 7 56 51 56 89 c 0 30 -32 72 -68 89 c -31 15 -51 86 -34 123 c 8 16 7 26 -3 36 c -26 29 -26 66 0 97 c 42 50 30 111 -25 131 c -32 11 -72 2 -85 -18 c -12 -20 -52 -12 -58 10 c -5 18 -11 21 -35 16 c -44 -9 -116 30 -120 65 c -8 72 -105 105 -157 53 z m 211 -121 c 26 -10 44 -24 48 -36 c 4 -17 10 -20 35 -15 c 34 7 61 -12 61 -42 c 0 -19 27 -48 63 -66 c 18 -9 22 -19 22 -56 c 0 -25 5 -52 11 -60 c 6 -8 14 -33 18 -56 c 6 -40 4 -45 -35 -83 c -40 -39 -41 -43 -35 -87 c 5 -41 3 -48 -23 -72 c -16 -15 -40 -27 -53 -27 c -17 1 -24 -5 -26 -22 c -5 -31 -46 -50 -73 -34 c -33 21 -80 14 -111 -15 l -27 -26 l -48 18 c -26 10 -54 27 -61 37 c -10 14 -21 18 -41 13 c -34 -7 -48 8 -48 54 c 0 38 -39 81 -73 81 c -27 0 -40 57 -25 107 c 5 16 3 25 -9 29 c -27 10 -19 57 15 90 c 29 27 31 33 26 81 c -5 51 -4 54 30 82 c 20 16 42 27 49 24 c 18 -7 44 15 44 36 c 0 9 9 22 21 29 c 18 11 26 11 55 -3 c 28 -13 41 -14 69 -5 c 18 6 39 18 45 26 c 16 18 25 18 76 -2 z" stroke-linecap="round"/>
</g>
</g>
</g>
</svg>